{"title":"Tron Duology DvdRip [Xvid] {1337x}-X","uid":6255131,"size":1470382080,"categoryP":"video","categoryS":"movies","magnet":"?xt=urn:btih:381fca360853a6ba969bb942d77ffdf4f6654fb2&amp;dn=Tron+Duology+DvdRip+%5BXvid%5D+%7B1337x%7D-X&amp;tr=udp%3A%2F%2Ftracker.openbittorrent.com%3A80&amp;tr=udp%3A%2F%2Fopen.demonii.com%3A1337&amp;tr=udp%3A%2F%2Ftracker.coppersurfer.tk%3A6969&amp;tr=udp%3A%2F%2Fexodus.desync.com%3A6969","seeders":1,"leechers":0,"uploader":"hiest","files":-1,"time":1300545322,"description":"Tron 1\n\nPlot:\n\n\nA hacker is literally abducted into the world of a computer and forced to participate in gladiatorial games where his only chance of escape is with the help of a heroic security program.\n\n\n\n\nVideo\n\nCodec ID : XVID\nCodec ID/Hint : XviD\nDuration : 2h 5mn\nBit rate : 666 Kbps\nWidth : 560 pixels\nHeight : 288 pixels\nDisplay aspect ratio : 1.944\nFrame rate : 23.976 fps\nColor space : YUV\nChroma subsampling : 4:2:0\nBit depth : 8 bits\nScan type : Progressive\nBits/(Pixel*Frame) : 0.172\nStream size : 596 MiB (85%)\nWriting library : XviD 57\n\nAudio\nID : 1\nFormat : MPEG Audio\nFormat version : Version 1\nFormat profile : Layer 3\nMode : Joint stereo\nMode extension : MS Stereo\nCodec ID : 55\nCodec ID/Hint : MP3\nDuration : 2h 5mn\nBit rate mode : Variable\nBit rate : 105 Kbps\nNominal bit rate : 112 Kbps\nChannel(s) : 2 channels\n\nTrailer\n\nIMDB &lt;a href=&quot;\nhttp://www.imdb.com/title/tt0084827/&quot; rel=&quot;nofollow&quot; target=&quot;_NEW&quot;&gt;\nhttp://www.imdb.com/title/tt0084827/&lt;/a&gt;\n\n\n\n\nScreens:\n &lt;a href=&quot;\nhttp://leetleech.org/images/68996141060142683862.jpg&quot; rel=&quot;nofollow&quot; target=&quot;_NEW&quot;&gt;\nhttp://leetleech.org/images/68996141060142683862.jpg&lt;/a&gt;\n\n\n\n----------------------------------------------------------------------------------\n\n\n================================== &lt;a href=&quot;\nhttp://thepiratebay.se/user/hiest&quot; rel=&quot;nofollow&quot; target=&quot;_NEW&quot;&gt;\nhttp://thepiratebay.se/user/hiest&lt;/a&gt;\n==================================\n\n\n----------------------------------------------------------------------------------\n\n\nTron 2\n\nPlot:\n\nThe son of a virtual world designer goes looking for his father and ends up inside the digital world that his father designed. He meets his father's creation turned bad and a unique ally who was born inside the digital domain of The Grid.\n\n\n\nVideo\n\nCodec ID : XVID\nCodec ID/Hint : XviD\nDuration : 1h 35mn\nBit rate : 907 Kbps\nWidth : 704 pixels\nHeight : 320 pixels\nDisplay aspect ratio : 2.2:1\nFrame rate : 23.976 fps\nColor space : YUV\nChroma subsampling : 4:2:0\nBit depth : 8 bits\nScan type : Progressive\nBits/(Pixel*Frame) : 0.168\nStream size : 621 MiB (89%)\nWriting library : XviD 57\n\nAudio\nID : 1\nFormat : MPEG Audio\nFormat version : Version 1\nFormat profile : Layer 3\nMode : Joint stereo\nMode extension : MS Stereo\nCodec ID : 55\nCodec ID/Hint : MP3\nDuration : 1h 35mn\nBit rate mode : Variable\nBit rate : 104 Kbps\nNominal bit rate : 112 Kbps\nChannel(s) : 2 channels\n\nTrailer\n\nIMDB &lt;a href=&quot;\nhttp://www.imdb.com/title/tt1104001/&quot; rel=&quot;nofollow&quot; target=&quot;_NEW&quot;&gt;\nhttp://www.imdb.com/title/tt1104001/&lt;/a&gt;\n\n\n\nScreens:\n &lt;a href=&quot;\nhttp://leetleech.org/images/59529377873479427973.jpg&quot; rel=&quot;nofollow&quot; target=&quot;_NEW&quot;&gt;\nhttp://leetleech.org/images/59529377873479427973.jpg&lt;/a&gt;\n\n-----------------------------------------------------------------------------------\n\n\n","torrent":{"xt":"urn:btih:381fca360853a6ba969bb942d77ffdf4f6654fb2","amp;dn":"Tron+Duology+DvdRip+%5BXvid%5D+%7B1337x%7D-X","amp;tr":["udp%3A%2F%2Ftracker.openbittorrent.com%3A80","udp%3A%2F%2Fopen.demonii.com%3A1337","udp%3A%2F%2Ftracker.coppersurfer.tk%3A6969","udp%3A%2F%2Fexodus.desync.com%3A6969"],"infoHash":"381fca360853a6ba969bb942d77ffdf4f6654fb2","infoHashBuffer":{"type":"Buffer","data":[56,31,202,54,8,83,166,186,150,155,185,66,215,127,253,244,246,101,79,178]},"announce":[],"urlList":[]}}